<svg xmlns="http://www.w3.org/2000/svg" width="900" height="1800" viewBox="0 0 900 1800"><defs><linearGradient id="g" x1="0" x2="1"><stop offset="0" stop-color="#0A84FF"/><stop offset="1" stop-color="#34C759"/></linearGradient></defs><rect width="100%" height="100%" fill="#0b0b0f"/><rect x="32" y="48" width="836" height="88" rx="20" fill="#111317"/><text x="60" y="110" fill="#fff" font-family="-apple-system, Inter, Segoe UI, Roboto" font-size="40" font-weight="700">Kansyl</text><rect x="32" y="168" width="836" height="400" rx="28" fill="#111317" stroke="#1f2430"/><text x="60" y="220" fill="#cbd5e1" font-size="28">Add a free trial</text><rect x="60" y="260" width="780" height="72" rx="14" fill="#0f1218" stroke="#1f2430"/><rect x="60" y="352" width="780" height="72" rx="14" fill="#0f1218" stroke="#1f2430"/><rect x="60" y="444" width="780" height="72" rx="14" fill="#0f1218" stroke="#1f2430"/><rect x="32" y="592" width="836" height="400" rx="28" fill="#111317" stroke="#1f2430"/><text x="60" y="644" fill="#cbd5e1" font-size="28">Upcoming reminders</text><circle cx="90" cy="690" r="8" fill="#0A84FF"/><text x="110" y="696" fill="#cbd5e1" font-size="24">Netflix — 3 days</text><circle cx="90" cy="740" r="8" fill="#34C759"/><text x="110" y="746" fill="#cbd5e1" font-size="24">Adobe — 1 day</text><rect x="32" y="1016" width="836" height="400" rx="28" fill="#111317" stroke="#1f2430"/><text x="60" y="1068" fill="#cbd5e1" font-size="28">Savings</text><rect x="60" y="1108" width="780" height="220" rx="20" fill="url(#g)" opacity="0.15"/><text x="60" y="1360" fill="#cbd5e1" font-size="22">Save $200+/year by avoiding unwanted charges.</text></svg>